<?xml version="1.0" standalone="no"?>
<!DOCTYPE svg PUBLIC "-//W3C//DTD SVG 20010904//EN"
 "http://www.w3.org/TR/2001/REC-SVG-20010904/DTD/svg10.dtd">
<svg version="1.0" xmlns="http://www.w3.org/2000/svg"
 width="512.000000pt" height="512.000000pt" viewBox="0 0 512.000000 512.000000"
 preserveAspectRatio="xMidYMid meet">
<metadata>
Created by potrace 1.16, written by Peter Selinger 2001-2019
</metadata>
<g transform="translate(0.000000,512.000000) scale(0.100000,-0.100000)"
fill="#ffffff" stroke="none">
<path d="M2243 5105 c-1001 -129 -1833 -825 -2130 -1780 -131 -423 -150 -895
-54 -1330 185 -835 791 -1529 1606 -1838 429 -163 955 -203 1418 -107 903 185
1650 863 1924 1745 131 423 150 895 54 1330 -107 481 -366 940 -724 1282 -413
393 -907 628 -1470 698 -148 18 -480 18 -624 0z m378 -381 c35 -18 116 -109
157 -178 85 -140 178 -389 237 -631 26 -108 75 -350 75 -372 0 -2 -238 -3
-530 -3 -291 0 -530 1 -530 3 0 22 49 264 75 372 59 242 152 491 237 631 48
81 126 164 173 185 40 19 58 17 106 -7z m-702 -173 c-101 -227 -188 -530 -245
-853 l-28 -158 -518 0 c-285 0 -518 3 -518 7 0 3 21 42 47 87 249 434 646 781
1093 955 69 27 139 53 155 59 66 23 66 19 14 -97z m1388 64 c482 -177 897
-529 1156 -981 26 -45 47 -84 47 -87 0 -4 -233 -7 -518 -7 l-518 0 -28 158
c-57 324 -144 626 -246 855 l-49 109 29 -6 c16 -3 73 -21 127 -41z m-1714
-1622 c-10 -216 -10 -651 0 -866 l9 -167 -573 2 -573 3 -18 70 c-53 209 -76
461 -59 670 15 176 44 349 76 443 3 9 128 12 576 12 l571 0 -9 -167z m1554 50
c10 -153 10 -813 0 -965 l-9 -118 -578 0 -578 0 -9 118 c-4 64 -8 281 -8 482
0 201 4 418 8 483 l9 117 578 0 578 0 9 -117z m1535 42 c53 -208 76 -462 59
-668 -12 -152 -31 -270 -59 -382 l-18 -70 -573 -3 -573 -2 9 167 c4 93 8 287
8 433 0 146 -4 340 -8 433 l-9 167 573 -2 573 -3 18 -70z m-3008 -1662 c57
-325 144 -627 246 -856 l49 -109 -29 6 c-58 11 -228 78 -347 137 -384 189
-717 503 -936 885 -26 45 -47 84 -47 87 0 4 233 7 518 7 l518 0 28 -157z
m1416 154 c0 -22 -49 -264 -75 -372 -59 -242 -152 -490 -237 -632 -49 -82
-131 -168 -178 -187 -37 -15 -43 -15 -80 0 -47 19 -129 105 -178 187 -85 142
-178 390 -237 632 -26 108 -75 350 -75 372 0 2 239 3 530 3 292 0 530 -1 530
-3z m1420 -4 c0 -3 -21 -42 -47 -87 -219 -382 -552 -696 -936 -885 -119 -59
-289 -126 -347 -137 l-29 -6 49 109 c102 229 189 531 246 856 l28 157 518 0
c285 0 518 -3 518 -7z"/>
</g>
</svg>
