<?xml version="1.0" encoding="UTF-8"?>
<!DOCTYPE svg PUBLIC "-//W3C//DTD SVG 1.1//EN" "http://www.w3.org/Graphics/SVG/1.1/DTD/svg11.dtd">
<svg xmlns="http://www.w3.org/2000/svg" version="1.1" width="512px" height="512px" style="shape-rendering:geometricPrecision; text-rendering:geometricPrecision; image-rendering:optimizeQuality; fill-rule:evenodd; clip-rule:evenodd" xmlns:xlink="http://www.w3.org/1999/xlink">
<g><path style="opacity:0.994" fill="#ffffff" d="M 511.5,213.5 C 511.5,241.5 511.5,269.5 511.5,297.5C 510.36,314.423 508.527,331.423 506,348.5C 503.232,373.168 494.066,395.001 478.5,414C 470.471,421.013 461.137,425.346 450.5,427C 423.24,429.664 395.906,430.997 368.5,431C 293.167,431.667 217.833,431.667 142.5,431C 121.158,430.6 99.8247,429.933 78.5,429C 61.3353,429.217 46.0019,424.217 32.5,414C 16.9351,395.004 7.7684,373.171 5,348.5C 2.55202,331.413 0.71869,314.413 -0.5,297.5C -0.5,269.5 -0.5,241.5 -0.5,213.5C 0.334372,183.206 5.50104,153.54 15,124.5C 20.1874,111.662 28.0207,100.829 38.5,92C 51.3225,85.3779 64.9892,82.0446 79.5,82C 138.147,80.0058 196.814,79.1725 255.5,79.5C 314.186,79.1725 372.853,80.0058 431.5,82C 446.009,82.0442 459.676,85.3775 472.5,92C 486.941,104.689 496.441,120.523 501,139.5C 506.808,163.983 510.308,188.65 511.5,213.5 Z M 191.5,160.5 C 244.471,191.652 297.137,223.319 349.5,255.5C 297.249,287.544 244.749,319.21 192,350.5C 191.5,287.168 191.333,223.834 191.5,160.5 Z"/></g>
</svg>
